<svg xmlns="http://www.w3.org/2000/svg" width="84.749" height="74.814" viewBox="0 0 84.749 74.814">
  <path id="Path_46" data-name="Path 46" d="M1114.912,78.626c0-13.639-9.112-24.4-22.75-24.4a24.914,24.914,0,0,0-19.557,9.352,24.908,24.908,0,0,0-19.692-9.524,22.815,22.815,0,0,0-9.824,2.13q-.511.242-1.006.509-.741.4-1.443.855a21.254,21.254,0,0,0-3.449,2.788q-.395.392-.767.8-.561.618-1.075,1.281-.342.441-.665.9a26.238,26.238,0,0,0-4.521,15.133,27.654,27.654,0,0,0,2.312,11.243c.14.316.288.628.44.936,3.132,7.468,12.463,22.575,39.622,38.235,0,0,24.178-12.657,37.236-34.2h0A26.4,26.4,0,0,0,1114.912,78.626Z" transform="translate(-1030.163 -54.054)" fill="#b2b2b2"/>
</svg>
