<svg xmlns="http://www.w3.org/2000/svg" width="88.748" height="79.096" viewBox="0 0 88.748 79.096">
  <path id="Path_47" data-name="Path 47" d="M1118.908,231.263c0-13.639-9.111-24.4-22.75-24.4a24.915,24.915,0,0,0-19.557,9.352,24.906,24.906,0,0,0-19.691-9.524,22.811,22.811,0,0,0-9.824,2.13q-.512.241-1.006.509-.741.4-1.444.855a21.3,21.3,0,0,0-3.449,2.787q-.393.393-.767.8-.56.618-1.074,1.281-.344.441-.665.9a26.23,26.23,0,0,0-4.521,15.133,27.656,27.656,0,0,0,2.311,11.243c.14.316.288.628.441.936,3.131,7.468,12.463,22.575,39.622,38.235,0,0,24.178-12.657,37.235-34.2h0A26.4,26.4,0,0,0,1118.908,231.263Z" transform="translate(-1032.16 -204.691)" fill="none" stroke="#fff" stroke-miterlimit="10" stroke-width="4" opacity="0.5"/>
</svg>
