<svg xmlns="http://www.w3.org/2000/svg" width="68.548" height="140.025" viewBox="0 0 68.548 140.025">
  <g id="Group_78" data-name="Group 78" transform="translate(-525.239 -361.941)">
    <g id="Group_47" data-name="Group 47">
      <circle id="Ellipse_1" data-name="Ellipse 1" cx="10.139" cy="10.139" r="10.139" transform="translate(557.446 396.524) rotate(-76.776)" fill="none" stroke="#fff" stroke-miterlimit="10" stroke-width="3" opacity="0.5"/>
      <path id="Path_48" data-name="Path 48" d="M574.943,420.554l-5.308,23.571,19.411,48.995a5.825,5.825,0,1,1-10.419,5.207l-20.638-41.872L536.249,497.8a5.75,5.75,0,0,1-10-5.678l19.894-46.654a124.754,124.754,0,0,0-.788-25.893c-1.718-12.7-5.252-26.348.545-37.779,2.949-5.815,8.085-10.321,13.837-13.39s12.121-4.8,18.513-6.093" fill="none" stroke="#fff" stroke-miterlimit="10" stroke-width="0.75" opacity="0.5"/>
      <path id="Path_49" data-name="Path 49" d="M552.394,404.721l22.984,6.311c3.09.848,6.267,1.739,8.808,3.691,2.432,1.867,4.078,4.551,5.67,7.172l3.062,5.043a1.884,1.884,0,0,1-.244,2.768l-12.041,14.419" fill="none" stroke="#fff" stroke-miterlimit="10" stroke-width="0.75" opacity="0.5"/>
    </g>
  </g>
</svg>
