<svg xmlns="http://www.w3.org/2000/svg" width="68.797" height="90.545" viewBox="0 0 68.797 90.545">
  <g id="Group_77" data-name="Group 77" transform="translate(-499 -204.691)">
    <g id="Group_18" data-name="Group 18">
      <path id="Path_39" data-name="Path 39" d="M565.8,278.971c0,8.729-12.462,14.265-32.4,14.265S501,288.4,501,279.671s22.123-9.56,44.169-15.807C558.622,260.053,565.8,270.241,565.8,278.971Z" fill="none" stroke="#fff" stroke-miterlimit="10" stroke-width="4" opacity="0.5"/>
      <path id="Path_40" data-name="Path 40" d="M553.913,250.972c-5.381,6.39-17.039,6.839-30.716,12.07-10.262,3.925-22.2-6.683-22.2-12.07s12.772-11.995,28.25-11.995S557.383,246.852,553.913,250.972Z" fill="none" stroke="#fff" stroke-miterlimit="10" stroke-width="4" opacity="0.5"/>
      <path id="Path_41" data-name="Path 41" d="M556.6,235.614c0,3.9-9.145-3.139-22.085-3.139s-23.43-.92-23.43-4.821,10.49-7.062,23.43-7.062S556.6,224.628,556.6,235.614Z" fill="none" stroke="#fff" stroke-miterlimit="10" stroke-width="4" opacity="0.5"/>
      <path id="Path_42" data-name="Path 42" d="M546.739,213.866c0,3.714-6.515,1.793-12.892,1.793s-7.287-.769-7.287-4.484,1.919-4.484,8.3-4.484S546.739,210.151,546.739,213.866Z" fill="none" stroke="#fff" stroke-miterlimit="10" stroke-width="4" opacity="0.5"/>
    </g>
  </g>
</svg>
