<svg xmlns="http://www.w3.org/2000/svg" width="65.219" height="83.835" viewBox="0 0 65.219 83.835">
  <g id="Group_79" data-name="Group 79" transform="translate(-673.042 -360.809)">
    <g id="Group_48" data-name="Group 48">
      <circle id="Ellipse_2" data-name="Ellipse 2" cx="10.942" cy="10.942" r="10.942" transform="translate(695.571 362.309)" fill="none" stroke="#fff" stroke-miterlimit="10" stroke-width="3" opacity="0.5"/>
      <path id="Path_50" data-name="Path 50" d="M703,404.221q-.2,4.883-.406,9.765a1.8,1.8,0,0,1-2.279,2.052,98.6,98.6,0,0,1-26.8-3.674,92.836,92.836,0,0,1,9.524-20.99l11.453-5.125" fill="none" stroke="#fff" stroke-miterlimit="10" stroke-width="0.75" opacity="0.5"/>
      <path id="Path_51" data-name="Path 51" d="M708.442,403.9l.247,9.77a1.8,1.8,0,0,0,2.245,2.089,98.634,98.634,0,0,0,26.858-3.235,92.791,92.791,0,0,0-9.179-21.143l-11.159-5.129" fill="none" stroke="#fff" stroke-miterlimit="10" stroke-width="0.75" opacity="0.5"/>
      <line id="Line_2" data-name="Line 2" x1="4.317" y1="24.069" transform="translate(688.368 420.31)" fill="none" stroke="#fff" stroke-miterlimit="10" stroke-width="3" opacity="0.5"/>
      <line id="Line_3" data-name="Line 3" x1="4.317" y2="24.069" transform="translate(718.962 420.31)" fill="none" stroke="#fff" stroke-miterlimit="10" stroke-width="3" opacity="0.5"/>
    </g>
  </g>
</svg>
